# xmcd
#
# Track frame offsets: 
#        301
#        23882
#        51646
#        77246
#        109886
#        129556
#        168746
#        194021
#        198907
#
# Disc length: 3002 seconds
#
# Revision: 1
# Processed by: cddbd v1.5.2PL0 Copyright (c) Steve Scherf et al.
# Submitted via: ExactAudioCopy v1.3
#
DISCID=880bb609
DTITLE=Shalosh - Rules Of Oppression
DYEAR=2016
DGENRE=Jazz
TTITLE0=Rules Of Oppression
TTITLE1=Lancaster
TTITLE2=Bond Villain
TTITLE3=Poem of The Bull
TTITLE4=Even Cowgirls Get the Blues
TTITLE5=Video Games
TTITLE6=Blue Eyed Tattooed Lady
TTITLE7=Interlude
TTITLE8=Don't You Want Me
EXTD=YEAR: 2017
EXTT0=
EXTT1=
EXTT2=
EXTT3=
EXTT4=
EXTT5=
EXTT6=
EXTT7=
EXTT8=
PLAYORDER=
